<svg width="153" height="41" viewBox="0 0 153 41" fill="none" xmlns="http://www.w3.org/2000/svg">
<path d="M9.19922 5.55078L15.1172 4.76953L12.2852 18.1289C13.5482 18.0378 14.7526 17.4518 15.8984 16.3711C16.9401 15.3945 17.7669 14.1576 18.3789 12.6602C18.9779 11.2279 19.2773 9.76953 19.2773 8.28516C19.2773 6.72266 18.8932 5.4401 18.125 4.4375C17.7083 3.92969 17.181 3.53906 16.543 3.26562C15.9049 2.97917 15.1628 2.83594 14.3164 2.83594C12.7018 2.83594 11.25 3.05729 9.96094 3.5C8.6849 3.94271 7.59766 4.58073 6.69922 5.41406C5.80078 6.2474 5.11719 7.26953 4.64844 8.48047C4.19271 9.69141 3.96484 11.0521 3.96484 12.5625C3.96484 13.3958 4.05599 14.0599 4.23828 14.5547C4.29036 14.724 4.35547 14.8737 4.43359 15.0039C4.48568 15.0951 4.51172 15.1862 4.51172 15.2773C3.06641 15.2773 2.01172 14.9909 1.34766 14.418C0.605469 13.793 0.234375 12.7839 0.234375 11.3906C0.234375 10.5182 0.423177 9.65885 0.800781 8.8125C1.17839 7.95312 1.71224 7.1263 2.40234 6.33203C3.05339 5.57682 3.82812 4.8737 4.72656 4.22266C5.63802 3.55859 6.62109 2.98568 7.67578 2.50391C9.88932 1.5013 12.0898 1 14.2773 1C17.3633 1 19.7591 1.80078 21.4648 3.40234C22.2201 4.11849 22.7799 4.94531 23.1445 5.88281C23.5221 6.82031 23.7109 7.81641 23.7109 8.87109C23.7109 10.1602 23.444 11.4427 22.9102 12.7188C22.3893 13.9948 21.6341 15.1341 20.6445 16.1367C19.6029 17.2044 18.3594 18.0508 16.9141 18.6758C15.4818 19.2878 13.8997 19.5938 12.168 19.5938H11.9531L9.51172 31H3.76953L9.19922 5.55078ZM29.6094 8.83203C29.1797 8.83203 28.7695 8.75391 28.3789 8.59766C27.9883 8.42839 27.6497 8.20052 27.3633 7.91406C27.0768 7.64062 26.849 7.30859 26.6797 6.91797C26.5234 6.52734 26.4453 6.11719 26.4453 5.6875C26.4453 5.25781 26.5234 4.84766 26.6797 4.45703C26.849 4.06641 27.0768 3.72135 27.3633 3.42188C27.6497 3.1224 27.9883 2.89453 28.3789 2.73828C28.7695 2.56901 29.1797 2.48438 29.6094 2.48438C30.0391 2.48438 30.4492 2.56901 30.8398 2.73828C31.2305 2.89453 31.5755 3.1224 31.875 3.42188C32.1745 3.72135 32.4023 4.06641 32.5586 4.45703C32.7279 4.84766 32.8125 5.25781 32.8125 5.6875C32.8125 6.11719 32.7279 6.52734 32.5586 6.91797C32.4023 7.30859 32.1745 7.64062 31.875 7.91406C31.5755 8.20052 31.2305 8.42839 30.8398 8.59766C30.4492 8.75391 30.0391 8.83203 29.6094 8.83203ZM26.8945 31.2344C25.6185 31.2344 24.6094 30.8568 23.8672 30.1016C23.0339 29.2682 22.6172 28.0508 22.6172 26.4492C22.6172 25.694 22.7214 24.8216 22.9297 23.832L25.6445 11H31.4062L28.5352 24.5938C28.431 24.9323 28.3789 25.362 28.3789 25.8828C28.3789 26.4297 28.5026 26.8138 28.75 27.0352C29.0104 27.2565 29.4271 27.3672 30 27.3672C30.3906 27.3672 30.7682 27.2826 31.1328 27.1133C31.5104 26.931 31.8555 26.6836 32.168 26.3711C32.806 25.7331 33.2878 24.8867 33.6133 23.832H35.293C34.5768 25.8503 33.6784 27.4583 32.5977 28.6562C31.6862 29.6328 30.6576 30.3359 29.5117 30.7656C28.6784 31.0781 27.806 31.2344 26.8945 31.2344ZM48.0664 31.2344C46.4128 31.2344 45.1888 30.7656 44.3945 29.8281C43.7044 29.0208 43.3594 27.9857 43.3594 26.7227C43.3594 26.1237 43.431 25.4271 43.5742 24.6328C43.7305 23.8385 43.9583 22.8164 44.2578 21.5664C44.5573 20.2904 44.7786 19.2747 44.9219 18.5195C45.0781 17.7513 45.1562 17.0872 45.1562 16.5273C45.1562 15.1602 44.6745 14.4766 43.7109 14.4766C43.0339 14.4766 42.4089 14.8346 41.8359 15.5508C41.3542 16.1628 40.9375 17.0352 40.5859 18.168L37.8711 31H32.1094L36.3477 11H42.1094L41.6797 13.0703C42.4609 12.1979 43.3008 11.5859 44.1992 11.2344C44.8633 10.974 45.5794 10.8438 46.3477 10.8438C47.7018 10.8438 48.7695 11.1953 49.5508 11.8984C50.3841 12.6667 50.8008 13.819 50.8008 15.3555C50.8008 16.2799 50.6315 17.4844 50.293 18.9688C50.2018 19.3984 50.0521 20.043 49.8438 20.9023C49.4661 22.3477 49.1927 23.5 49.0234 24.3594C48.9193 24.9062 48.8672 25.349 48.8672 25.6875C48.8672 26.2214 48.9844 26.638 49.2188 26.9375C49.4661 27.224 49.8828 27.3672 50.4688 27.3672C51.263 27.3672 51.9336 27.0417 52.4805 26.3906C52.8971 25.8958 53.3464 25.043 53.8281 23.832H55.5078C54.5182 26.7617 53.2682 28.8125 51.7578 29.9844C50.6901 30.8177 49.4596 31.2344 48.0664 31.2344ZM60.8984 41C60.2734 41 59.6875 40.9154 59.1406 40.7461C58.6068 40.5898 58.1445 40.349 57.7539 40.0234C57.3372 39.6979 57.0117 39.2878 56.7773 38.793C56.543 38.3112 56.4258 37.7513 56.4258 37.1133C56.4258 35.6029 57.1354 34.3073 58.5547 33.2266C59.6224 32.4323 61.0872 31.7422 62.9492 31.1562L63.4375 29.0469C62.0703 30.5052 60.4688 31.2344 58.6328 31.2344C57.1094 31.2344 55.8789 30.7591 54.9414 29.8086C53.8477 28.6888 53.3008 27.0221 53.3008 24.8086C53.3008 23.8711 53.3984 22.8815 53.5938 21.8398C53.776 20.7982 54.0495 19.7695 54.4141 18.7539C55.2474 16.4622 56.3867 14.6133 57.832 13.207C59.4987 11.6055 61.4193 10.8047 63.5938 10.8047C64.6745 10.8047 65.4818 10.9935 66.0156 11.3711C66.5625 11.7357 66.8359 12.224 66.8359 12.8359V13.0703L67.2656 11H73.0273L69.0625 29.5547C70.3255 29.138 71.3346 28.513 72.0898 27.6797C72.9102 26.7812 73.5807 25.4987 74.1016 23.832H75.7812C75.0651 26.2018 73.9974 28.0312 72.5781 29.3203C71.5365 30.2578 70.2474 30.9219 68.7109 31.3125L68.1055 34.2031C67.5977 36.7552 66.582 38.6042 65.0586 39.75C63.9518 40.5833 62.5651 41 60.8984 41ZM61.2305 27.3672C61.8034 27.3672 62.4089 27.1003 63.0469 26.5664C63.737 25.9674 64.1992 25.1927 64.4336 24.2422L66.4648 14.7695C66.4648 14.6393 66.4323 14.4896 66.3672 14.3203C66.3151 14.151 66.237 13.9948 66.1328 13.8516C65.8203 13.474 65.3841 13.2852 64.8242 13.2852C64.2904 13.2852 63.7695 13.4609 63.2617 13.8125C62.7669 14.1641 62.2982 14.6523 61.8555 15.2773C61.0742 16.4102 60.4297 17.888 59.9219 19.7109C59.6875 20.5182 59.5117 21.319 59.3945 22.1133C59.2773 22.8945 59.2188 23.6042 59.2188 24.2422C59.2188 25.5703 59.4661 26.4688 59.9609 26.9375C60.1302 27.1198 60.319 27.237 60.5273 27.2891C60.7357 27.3411 60.9701 27.3672 61.2305 27.3672ZM59.9805 37.875C60.3971 37.875 60.8268 37.582 61.2695 36.9961C61.7122 36.4232 62.0573 35.5312 62.3047 34.3203L62.5391 33.168C61.3281 33.6237 60.4232 34.0859 59.8242 34.5547C59.0299 35.1536 58.6328 35.8242 58.6328 36.5664C58.6328 36.918 58.7435 37.2109 58.9648 37.4453C59.2122 37.7318 59.5508 37.875 59.9805 37.875ZM83.8867 31.7227C82.6107 31.7227 81.4583 31.5534 80.4297 31.2148C79.401 30.8893 78.5156 30.4141 77.7734 29.7891C77.0182 29.1641 76.4388 28.4219 76.0352 27.5625C75.6445 26.7031 75.4492 25.7526 75.4492 24.7109C75.4492 23.8385 75.5859 23.0182 75.8594 22.25C76.1458 21.4688 76.543 20.7917 77.0508 20.2188C77.5586 19.6458 78.151 19.2031 78.8281 18.8906C79.5052 18.5651 80.2214 18.4023 80.9766 18.4023C81.9141 18.4023 82.7018 18.6367 83.3398 19.1055C83.9779 19.5742 84.375 20.2188 84.5312 21.0391C83.138 21.0391 82.0312 21.4102 81.2109 22.1523C80.8203 22.5039 80.5143 22.9336 80.293 23.4414C80.0846 23.9492 79.9805 24.5091 79.9805 25.1211C79.9805 26.293 80.319 27.224 80.9961 27.9141C81.6862 28.5911 82.6107 28.9297 83.7695 28.9297C84.4596 28.9297 85.1042 28.806 85.7031 28.5586C86.3021 28.2982 86.8229 27.9466 87.2656 27.5039C87.7083 27.0612 88.0469 26.5339 88.2812 25.9219C88.5286 25.2969 88.6523 24.6328 88.6523 23.9297C88.6523 22.6276 88.2096 21.2734 87.3242 19.8672C86.9727 19.3203 86.582 18.7865 86.1523 18.2656C85.7357 17.7318 85.1497 17.0286 84.3945 16.1562C83.7174 15.375 83.151 14.6979 82.6953 14.125C82.2396 13.5521 81.8294 12.9661 81.4648 12.3672C80.5794 10.9219 80.1367 9.5026 80.1367 8.10938C80.1367 7.06771 80.3581 6.10417 80.8008 5.21875C81.2435 4.32031 81.875 3.53906 82.6953 2.875C83.5156 2.21094 84.4727 1.69661 85.5664 1.33203C86.6602 0.967448 87.8385 0.785156 89.1016 0.785156C91.25 0.785156 92.9753 1.29297 94.2773 2.30859C94.9023 2.80339 95.3776 3.39583 95.7031 4.08594C96.0417 4.77604 96.2109 5.54427 96.2109 6.39062C96.2109 7.4974 95.931 8.40234 95.3711 9.10547C95.1107 9.44401 94.7852 9.70443 94.3945 9.88672C94.0169 10.069 93.6133 10.1602 93.1836 10.1602C92.181 10.1602 91.3672 9.74349 90.7422 8.91016C91.25 8.54557 91.6471 8.0638 91.9336 7.46484C92.2331 6.85286 92.3828 6.20182 92.3828 5.51172C92.3828 4.65234 92.1289 3.97526 91.6211 3.48047C91.1133 2.97266 90.4167 2.71875 89.5312 2.71875C88.9974 2.71875 88.5026 2.81641 88.0469 3.01172C87.6042 3.20703 87.2266 3.48698 86.9141 3.85156C86.5885 4.21615 86.3346 4.64583 86.1523 5.14062C85.9831 5.63542 85.8984 6.17578 85.8984 6.76172C85.8984 7.59505 86.0938 8.39583 86.4844 9.16406C86.875 9.93229 87.4349 10.7331 88.1641 11.5664C88.8151 12.3346 89.5182 13.0964 90.2734 13.8516C92.0312 15.6745 93.2747 17.4518 94.0039 19.1836C94.4336 20.2122 94.6484 21.3451 94.6484 22.582C94.6484 23.8841 94.3815 25.0951 93.8477 26.2148C93.3138 27.3216 92.5521 28.2852 91.5625 29.1055C90.5729 29.9388 89.4206 30.5833 88.1055 31.0391C86.7904 31.4948 85.3841 31.7227 83.8867 31.7227ZM111.348 31.2344C109.694 31.2344 108.47 30.7656 107.676 29.8281C106.986 29.0208 106.641 27.9857 106.641 26.7227C106.641 26.1237 106.712 25.4271 106.855 24.6328C107.012 23.8385 107.24 22.8164 107.539 21.5664C107.839 20.2904 108.06 19.2747 108.203 18.5195C108.359 17.7513 108.438 17.0872 108.438 16.5273C108.438 15.1602 107.956 14.4766 106.992 14.4766C106.315 14.4766 105.69 14.8346 105.117 15.5508C104.635 16.1628 104.219 17.0352 103.867 18.168L101.152 31H95.3906L101.191 3.79297L107.109 2.99219L104.961 13.0703C105.742 12.1979 106.582 11.5859 107.48 11.2344C108.145 10.974 108.861 10.8438 109.629 10.8438C110.983 10.8438 112.051 11.1953 112.832 11.8984C113.665 12.6667 114.082 13.819 114.082 15.3555C114.082 16.2799 113.913 17.4844 113.574 18.9688C113.483 19.3984 113.333 20.043 113.125 20.9023C112.747 22.3477 112.474 23.5 112.305 24.3594C112.201 24.9062 112.148 25.349 112.148 25.6875C112.148 26.2214 112.266 26.638 112.5 26.9375C112.747 27.224 113.164 27.3672 113.75 27.3672C114.544 27.3672 115.215 27.0417 115.762 26.3906C116.178 25.8958 116.628 25.043 117.109 23.832H118.789C117.799 26.7617 116.549 28.8125 115.039 29.9844C113.971 30.8177 112.741 31.2344 111.348 31.2344ZM122.949 31.1562C120.97 31.1562 119.44 30.6745 118.359 29.7109C117.148 28.6432 116.543 27.0221 116.543 24.8477C116.543 24.0273 116.628 23.1224 116.797 22.1328C116.966 21.1302 117.227 20.1211 117.578 19.1055C118.385 16.6836 119.538 14.75 121.035 13.3047C122.845 11.5339 125 10.6484 127.5 10.6484C130.924 10.6484 132.637 12.7773 132.637 17.0352V17.0742C132.715 17.1003 132.78 17.1133 132.832 17.1133H133.066C133.952 17.1133 135 16.8659 136.211 16.3711C137.279 15.9284 138.288 15.375 139.238 14.7109L139.59 15.8047C138.809 16.625 137.799 17.3216 136.562 17.8945C135.339 18.4674 133.984 18.8776 132.5 19.125C132.344 20.9349 131.992 22.5885 131.445 24.0859C130.898 25.5703 130.195 26.8464 129.336 27.9141C128.49 28.9557 127.52 29.7565 126.426 30.3164C125.332 30.8763 124.173 31.1562 122.949 31.1562ZM124.551 27.5625C125.02 27.5625 125.495 27.3542 125.977 26.9375C126.471 26.5078 126.934 25.9154 127.363 25.1602C127.793 24.4049 128.164 23.5195 128.477 22.5039C128.789 21.4883 129.023 20.401 129.18 19.2422C128.789 19.138 128.509 18.9427 128.34 18.6562C128.184 18.3698 128.105 18.0052 128.105 17.5625C128.105 17.0156 128.216 16.5599 128.438 16.1953C128.659 15.8307 128.965 15.5638 129.355 15.3945C129.303 14.5482 129.167 13.9427 128.945 13.5781C128.828 13.3958 128.678 13.2656 128.496 13.1875C128.327 13.1094 128.105 13.0703 127.832 13.0703C126.934 13.0703 126.055 13.7474 125.195 15.1016C124.401 16.3255 123.75 17.8359 123.242 19.6328C122.747 21.3906 122.5 22.9531 122.5 24.3203C122.5 24.9844 122.533 25.5247 122.598 25.9414C122.676 26.3581 122.799 26.6836 122.969 26.918C123.125 27.1523 123.327 27.3216 123.574 27.4258C123.822 27.5169 124.147 27.5625 124.551 27.5625ZM137.734 9.51562H143.496L142.852 12.5234C144.206 11.3776 145.762 10.8047 147.52 10.8047C149.017 10.8047 150.176 11.2604 150.996 12.1719C151.934 13.2396 152.402 14.8867 152.402 17.1133C152.402 19.2617 152.129 21.2799 151.582 23.168C150.892 25.5768 149.889 27.4453 148.574 28.7734C146.96 30.4141 144.954 31.2344 142.559 31.2344C141.634 31.2344 140.872 31.0911 140.273 30.8047C139.818 30.5964 139.447 30.2643 139.16 29.8086L137.09 39.5547L131.055 41L137.734 9.51562ZM141.328 27.7578C142.617 27.7578 143.724 27.1003 144.648 25.7852C145.378 24.7565 145.964 23.3112 146.406 21.4492C146.758 19.9518 146.934 18.4674 146.934 16.9961C146.934 15.681 146.693 14.7435 146.211 14.1836C145.898 13.8451 145.469 13.6758 144.922 13.6758C144.44 13.6758 143.952 13.8451 143.457 14.1836C142.962 14.5221 142.533 15.0104 142.168 15.6484L139.805 26.8398C139.896 27.1003 140.065 27.3216 140.312 27.5039C140.573 27.6732 140.911 27.7578 141.328 27.7578Z" fill="url(#paint0_linear_1_2)"/>
<defs>
<linearGradient id="paint0_linear_1_2" x1="83" y1="-10" x2="83" y2="46" gradientUnits="userSpaceOnUse">
<stop offset="0.125" stop-color="#0E24EE" stop-opacity="0.96"/>
<stop offset="1" stop-color="#FF0505" stop-opacity="0.65"/>
</linearGradient>
</defs>
</svg>
